<?xml version="1.0" encoding="UTF-8" standalone="no"?>
<!DOCTYPE svg PUBLIC "-//W3C//DTD SVG 1.1//EN"
 "http://www.w3.org/Graphics/SVG/1.1/DTD/svg11.dtd">
<!-- Generated by graphviz version 2.38.0 (20140413.2041)
 -->
<!-- Title: %3 Pages: 1 -->
<svg width="571pt" height="470pt"
 viewBox="0.00 0.00 570.96 470.00" xmlns="http://www.w3.org/2000/svg" xmlns:xlink="http://www.w3.org/1999/xlink">
<g id="graph0" class="graph" transform="scale(1 1) rotate(0) translate(4 466)">
<title>%3</title>
<polygon fill="#333333" stroke="none" points="-4,4 -4,-466 566.956,-466 566.956,4 -4,4"/>
<text text-anchor="middle" x="281.478" y="-7.2" font-family="Times,serif" font-size="16.00" fill="white">Network Map</text>
<!-- R4 -->
<g id="node1" class="node"><title>R4</title>
<polygon fill="#006699" stroke="#006699" points="143.036,-96 67.2427,-96 67.2427,-24 143.036,-24 143.036,-96"/>
<text text-anchor="middle" x="105.139" y="-55.8" font-family="Helvetica,sans-Serif" font-size="14.00" fill="white">R4</text>
</g>
<!-- R5 -->
<g id="node2" class="node"><title>R5</title>
<polygon fill="#006699" stroke="#006699" points="143.036,-218 67.2427,-218 67.2427,-146 143.036,-146 143.036,-218"/>
<text text-anchor="middle" x="105.139" y="-177.8" font-family="Helvetica,sans-Serif" font-size="14.00" fill="white">R5</text>
</g>
<!-- R4&#45;&#45;R5 -->
<g id="edge5" class="edge"><title>R4&#45;&#45;R5</title>
<path fill="none" stroke="green" stroke-dasharray="5,2" d="M105.139,-96.0316C105.139,-111.666 105.139,-130.053 105.139,-145.717"/>
<text text-anchor="middle" x="155.547" y="-116.8" font-family="Courier,monospace" font-size="14.00" fill="white"> &#160;&#160;&#160;&#160;&#160;&#160;&#160;&#160;&#160;&#160;&#160;</text>
<text text-anchor="middle" x="84.1359" y="-134.517" font-family="Courier,monospace" font-size="14.00" fill="white">Fa0/1</text>
<text text-anchor="middle" x="84.1359" y="-98.8316" font-family="Courier,monospace" font-size="14.00" fill="white">Fa0/1</text>
</g>
<!-- R1 -->
<g id="node3" class="node"><title>R1</title>
<polygon fill="#006699" stroke="#006699" points="325.036,-462 249.243,-462 249.243,-390 325.036,-390 325.036,-462"/>
<text text-anchor="middle" x="287.139" y="-421.8" font-family="Helvetica,sans-Serif" font-size="14.00" fill="white">R1</text>
</g>
<!-- R4&#45;&#45;R1 -->
<g id="edge4" class="edge"><title>R4&#45;&#45;R1</title>
<path fill="none" stroke="green" stroke-dasharray="5,2" d="M66.9965,-94.83C28.8617,-132.938 -20.1871,-196.535 9.32287,-250 60.9708,-343.574 185.995,-393.954 249.204,-414.216"/>
<text text-anchor="middle" x="60.5475" y="-238.8" font-family="Courier,monospace" font-size="14.00" fill="white"> &#160;&#160;&#160;&#160;&#160;&#160;&#160;&#160;&#160;&#160;&#160;</text>
<text text-anchor="middle" x="228.201" y="-403.016" font-family="Courier,monospace" font-size="14.00" fill="white">Fa4/0</text>
<text text-anchor="middle" x="45.9931" y="-83.63" font-family="Courier,monospace" font-size="14.00" fill="white">Fa4/0</text>
</g>
<!-- R2 -->
<g id="node4" class="node"><title>R2</title>
<polygon fill="#006699" stroke="#006699" points="325.036,-218 249.243,-218 249.243,-146 325.036,-146 325.036,-218"/>
<text text-anchor="middle" x="287.139" y="-177.8" font-family="Helvetica,sans-Serif" font-size="14.00" fill="white">R2</text>
</g>
<!-- R4&#45;&#45;R2 -->
<g id="edge2" class="edge"><title>R4&#45;&#45;R2</title>
<path fill="none" stroke="green" stroke-dasharray="5,2" d="M143.074,-78.258C162.77,-87.8208 186.884,-100.491 207.139,-114 221.457,-123.55 236.166,-135.238 249.003,-146.163"/>
<text text-anchor="middle" x="276.547" y="-116.8" font-family="Courier,monospace" font-size="14.00" fill="white"> &#160;&#160;&#160;&#160;&#160;&#160;&#160;&#160;&#160;&#160;&#160;</text>
<text text-anchor="middle" x="227.999" y="-134.963" font-family="Courier,monospace" font-size="14.00" fill="white">Fa1/0</text>
<text text-anchor="middle" x="164.077" y="-67.058" font-family="Courier,monospace" font-size="14.00" fill="white">Fa1/0</text>
</g>
<!-- R3 -->
<g id="node5" class="node"><title>R3</title>
<polygon fill="#006699" stroke="#006699" points="267.036,-340 191.243,-340 191.243,-268 267.036,-268 267.036,-340"/>
<text text-anchor="middle" x="229.139" y="-299.8" font-family="Helvetica,sans-Serif" font-size="14.00" fill="white">R3</text>
</g>
<!-- R5&#45;&#45;R3 -->
<g id="edge8" class="edge"><title>R5&#45;&#45;R3</title>
<path fill="none" stroke="green" stroke-dasharray="5,2" d="M107.785,-218.295C110.069,-229.371 114.14,-241.035 121.323,-250 138.863,-271.893 167.734,-285.411 191.187,-293.312"/>
<text text-anchor="middle" x="172.547" y="-238.8" font-family="Courier,monospace" font-size="14.00" fill="white"> &#160;&#160;&#160;&#160;&#160;&#160;&#160;&#160;&#160;&#160;&#160;</text>
<text text-anchor="middle" x="170.184" y="-282.112" font-family="Courier,monospace" font-size="14.00" fill="white">Fa3/0</text>
<text text-anchor="middle" x="86.7815" y="-221.095" font-family="Courier,monospace" font-size="14.00" fill="white">Fa4/0</text>
</g>
<!-- R2&#45;&#45;R1 -->
<g id="edge3" class="edge"><title>R2&#45;&#45;R1</title>
<path fill="none" stroke="green" stroke-dasharray="5,2" d="M325.366,-190.891C364.461,-201.22 423.168,-223.516 450.139,-268 466.73,-295.363 466.73,-312.637 450.139,-340 423.168,-384.484 364.461,-406.78 325.366,-417.109"/>
<text text-anchor="middle" x="512.547" y="-299.8" font-family="Courier,monospace" font-size="14.00" fill="white"> &#160;&#160;&#160;&#160;&#160;&#160;&#160;&#160;&#160;&#160;&#160;</text>
<text text-anchor="middle" x="346.369" y="-405.909" font-family="Courier,monospace" font-size="14.00" fill="white">Fa3/0</text>
<text text-anchor="middle" x="346.369" y="-179.691" font-family="Courier,monospace" font-size="14.00" fill="white">Fa3/0</text>
</g>
<!-- R2&#45;&#45;R1 -->
<g id="edge7" class="edge"><title>R2&#45;&#45;R1</title>
<path fill="none" stroke="green" stroke-dasharray="5,2" d="M321.789,-218.27C325.601,-223.839 328.906,-229.813 331.139,-236 341.401,-264.427 341.401,-343.573 331.139,-372 328.906,-378.187 325.601,-384.161 321.789,-389.73"/>
<text text-anchor="middle" x="389.547" y="-299.8" font-family="Courier,monospace" font-size="14.00" fill="white"> &#160;&#160;&#160;&#160;&#160;&#160;&#160;&#160;&#160;&#160;&#160;</text>
<text text-anchor="middle" x="300.785" y="-378.53" font-family="Courier,monospace" font-size="14.00" fill="white">Fa0/1</text>
<text text-anchor="middle" x="300.785" y="-221.07" font-family="Courier,monospace" font-size="14.00" fill="white">Fa1/0</text>
</g>
<!-- R2&#45;&#45;R3 -->
<g id="edge1" class="edge"><title>R2&#45;&#45;R3</title>
<path fill="none" stroke="green" stroke-dasharray="5,2" d="M249.14,-210.297C241.549,-217.713 234.603,-226.388 230.323,-236 225.969,-245.778 224.592,-257.181 224.614,-267.778"/>
<text text-anchor="middle" x="281.547" y="-238.8" font-family="Courier,monospace" font-size="14.00" fill="white"> &#160;&#160;&#160;&#160;&#160;&#160;&#160;&#160;&#160;&#160;&#160;</text>
<text text-anchor="middle" x="203.611" y="-256.578" font-family="Courier,monospace" font-size="14.00" fill="white">Fa0/0</text>
<text text-anchor="middle" x="228.136" y="-199.097" font-family="Courier,monospace" font-size="14.00" fill="white">Fa0/0</text>
</g>
<!-- R3&#45;&#45;R1 -->
<g id="edge6" class="edge"><title>R3&#45;&#45;R1</title>
<path fill="none" stroke="green" stroke-dasharray="5,2" d="M224.614,-340.222C224.592,-350.819 225.969,-362.222 230.323,-372 234.603,-381.612 241.549,-390.287 249.14,-397.703"/>
<text text-anchor="middle" x="281.547" y="-360.8" font-family="Courier,monospace" font-size="14.00" fill="white"> &#160;&#160;&#160;&#160;&#160;&#160;&#160;&#160;&#160;&#160;&#160;</text>
<text text-anchor="middle" x="228.136" y="-386.503" font-family="Courier,monospace" font-size="14.00" fill="white">Fa0/1</text>
<text text-anchor="middle" x="203.611" y="-343.022" font-family="Courier,monospace" font-size="14.00" fill="white">Fa0/1</text>
</g>
</g>
</svg>
